<svg width="372" height="44" viewBox="0 0 372 44" fill="none" xmlns="http://www.w3.org/2000/svg">
<g clip-path="url(#clip0_4_136)">
<path d="M27.3704 26.5161C26.7778 28.4386 26.2963 29.9621 26.1111 31.4493H26C25.8148 29.9984 25.4074 28.4749 24.8148 26.5886L15.5926 1.16077H0V42.8393H9.40741V15.1987C9.40741 13.2036 9.33333 11.2086 9.11111 9.57627H9.2963C9.59259 10.8821 10.1481 12.986 10.7778 14.6183L20.963 42.8393H30.5926L40.8519 14.6183C41.4444 13.0223 42.1852 10.7007 42.4074 9.50372H42.5926C42.3704 11.3174 42.2222 13.385 42.2222 15.1987V42.8393H52.2222V1.16077H36.3333L27.3333 26.5161H27.3704Z" fill="white"/>
<path d="M73.3704 25.2828H96.3704V17.8829H73.3704V8.85079H97.4074V1.16077H62.4815V42.8393H97.8148V35.1492H73.3704V25.2828Z" fill="white"/>
<path d="M126.741 35.258H117.519V8.74197H126.741C134.704 8.74197 139.37 13.8566 139.37 21.6554C139.37 29.4543 134.741 35.258 126.741 35.258ZM127.741 1.16077H106.593V42.8393H127.63C141.519 42.8393 150.741 34.2787 150.741 21.5466C150.741 8.81452 141.778 1.16077 127.741 1.16077" fill="white"/>
<path d="M169.111 1.16077H158.222V42.803H169.111V1.16077Z" fill="white"/>
<path d="M192.556 26.4798L197.111 14.8722C197.704 13.2399 198.667 10.6645 199.148 8.48805H199.333C199.815 10.6645 200.704 13.2399 201.37 14.8722L205.926 26.4798H192.556V26.4798ZM192.741 1.19704L174.815 42.8393H186.148L189.741 33.6983H208.741L212.333 42.8393H223.667L205.704 1.16077H192.704L192.741 1.19704Z" fill="white"/>
<path d="M248.815 35.5482C240.889 35.5482 236.111 30.216 236.111 21.9819C236.111 13.7477 240.852 8.37922 248.63 8.37922C254.815 8.37922 258.704 11.535 259.778 17.1937L270.926 15.2712C269.074 5.87634 260.926 0 248.815 0C234.259 0 224.778 8.92333 224.778 22.127C224.778 35.3306 233.593 44 248.556 44C260.481 44 268.333 38.4864 270.963 29.3817L259.926 27.0239C258.667 32.465 254.778 35.5482 248.778 35.5482" fill="white"/>
<path d="M299.481 35.8384C291.63 35.8384 286.704 30.4336 286.704 21.9819C286.704 13.5301 291.63 8.12531 299.481 8.12531C307.333 8.12531 312.296 13.4575 312.296 21.9819C312.296 30.5062 307.37 35.8384 299.481 35.8384ZM299.481 0C284.852 0 275.333 8.56059 275.333 22.0181C275.333 35.4757 284.852 44.0363 299.481 44.0363C314.111 44.0363 323.63 35.4757 323.63 22.0181C323.63 8.56059 314.185 0 299.481 0Z" fill="white"/>
<path d="M352 20.3133H342.185V8.52431H352C357.333 8.52431 359.259 10.9909 359.259 14.2556C359.259 17.5202 357.296 20.3133 352 20.3133ZM370.704 14.1467C370.704 7.03709 366.259 1.19702 354.333 1.19702H331.259V42.8392H342.148V27.3504H350.889L359.926 42.8392H371.963L361.778 25.9357C368.074 23.9406 370.63 19.08 370.63 14.1467" fill="white"/>
</g>
<defs>
<clipPath id="clip0_4_136">
<rect width="372" height="44" fill="white"/>
</clipPath>
</defs>
</svg>
